<?xml version="1.0" standalone="no"?>
<!DOCTYPE svg PUBLIC "-//W3C//DTD SVG 20010904//EN"
 "http://www.w3.org/TR/2001/REC-SVG-20010904/DTD/svg10.dtd">
<svg version="1.0" xmlns="http://www.w3.org/2000/svg"
 width="1024.000000pt" height="1024.000000pt" viewBox="0 0 1024.000000 1024.000000"
 preserveAspectRatio="xMidYMid meet">

<g transform="translate(0.000000,1024.000000) scale(0.100000,-0.100000)"
fill="#000000" stroke="none">
<path d="M4976 7199 c-97 -14 -174 -37 -260 -77 -80 -38 -222 -138 -261 -184
-145 -171 -192 -258 -234 -431 -34 -143 -36 -264 -5 -399 6 -26 4 -28 -27 -28
-31 0 -58 -24 -338 -307 -167 -170 -517 -522 -777 -783 -457 -458 -474 -477
-474 -513 0 -27 7 -45 25 -62 l24 -25 2454 0 2454 0 27 26 c31 32 33 68 6 109
-37 57 -1553 1555 -1573 1555 -18 0 -19 5 -13 58 16 147 18 197 7 274 -72 513
-529 861 -1035 787z m99 -1439 c234 -233 425 -429 425 -435 0 -7 -12 -23 -27
-37 -16 -13 -139 -138 -276 -276 -221 -225 -250 -252 -279 -252 -28 0 -45 14
-126 100 -139 147 -162 147 -301 -2 -92 -98 -119 -115 -156 -95 -13 6 -96 89
-185 182 -249 263 -263 275 -313 275 -41 0 -45 -3 -222 -185 -153 -157 -184
-185 -209 -185 -40 0 -76 35 -76 74 0 26 53 84 423 456 l422 427 257 -258
c141 -143 268 -263 283 -269 50 -19 85 -12 121 24 57 57 43 107 -58 202 -29
27 -133 132 -232 233 l-179 183 134 134 c74 74 137 133 141 132 4 -2 199 -194
433 -428z m1352 -366 c235 -239 434 -446 441 -459 7 -14 10 -36 6 -50 -9 -35
-59 -75 -95 -75 -32 0 -41 8 -249 225 -144 151 -162 165 -212 165 -98 0 -140
-126 -64 -189 37 -31 5 -91 -48 -91 -26 0 -46 15 -131 104 -55 57 -174 181
-265 276 -91 94 -165 176 -165 181 0 14 328 349 342 349 6 0 204 -196 440
-436z"/>
<path d="M2770 4093 c-32 -17 -52 -51 -237 -423 -111 -223 -202 -418 -202
-433 -1 -43 47 -87 96 -87 62 1 84 20 144 132 l55 103 196 3 196 2 53 -101
c29 -55 64 -109 77 -120 60 -47 172 -2 172 69 0 11 -76 172 -168 358 -93 187
-183 369 -202 406 -18 37 -42 74 -55 82 -38 25 -86 28 -125 9z m59 -491 c-50
-1 -94 0 -97 3 -4 3 16 49 42 103 l49 97 49 -100 49 -100 -92 -3z"/>
<path d="M3563 4103 c-12 -2 -34 -18 -48 -34 l-25 -31 0 -404 c0 -447 1 -452
61 -473 42 -14 55 -14 93 4 58 28 60 38 66 296 l5 237 75 -86 c41 -47 148
-168 238 -269 160 -180 164 -183 203 -183 51 0 75 13 94 50 13 24 15 91 15
422 0 293 -3 399 -13 418 -7 14 -29 33 -51 44 -32 16 -44 17 -75 7 -75 -22
-75 -25 -81 -289 l-5 -235 -155 178 c-85 98 -185 213 -222 255 -41 47 -80 82
-99 89 -33 11 -37 11 -76 4z"/>
<path d="M4664 4099 c-17 -5 -39 -18 -50 -30 -18 -20 -19 -41 -19 -434 0 -403
1 -414 21 -441 40 -54 130 -52 174 3 19 25 20 40 20 438 l0 412 -26 27 c-15
14 -32 26 -38 26 -6 0 -20 2 -31 4 -11 3 -34 1 -51 -5z"/>
<path d="M6972 4096 c-42 -19 -57 -57 -38 -94 8 -15 65 -97 126 -182 105 -145
112 -156 99 -177 -8 -12 -71 -102 -141 -199 -141 -196 -151 -222 -103 -269 19
-20 34 -25 74 -25 67 0 87 19 207 194 55 79 103 142 107 139 4 -2 56 -72 114
-154 62 -87 118 -156 134 -165 61 -31 146 -9 168 45 16 36 14 40 -93 185 -46
61 -108 148 -140 193 l-57 82 100 138 c56 76 112 157 127 180 24 40 24 43 10
72 -32 62 -147 63 -198 3 -13 -15 -54 -73 -93 -129 -38 -56 -72 -100 -76 -98
-3 3 -38 51 -77 108 -40 57 -84 115 -100 130 -35 34 -103 44 -150 23z"/>
<path d="M5123 4088 c-18 -5 -38 -18 -44 -29 -7 -14 -11 -151 -12 -429 -2
-401 -2 -409 19 -437 l21 -28 189 0 c175 0 192 2 230 22 102 54 154 133 154
233 0 89 -16 129 -75 187 -51 49 -52 52 -35 68 10 9 28 40 40 68 63 145 -47
330 -203 343 -118 9 -254 10 -284 2z m266 -215 c12 -10 24 -34 27 -53 5 -28 1
-40 -20 -63 -21 -22 -33 -27 -76 -27 l-50 0 0 80 0 80 49 0 c32 0 56 -6 70
-17z m33 -354 c26 -14 51 -74 42 -102 -14 -48 -32 -57 -116 -57 l-78 0 0 85 0
85 66 0 c36 0 74 -5 86 -11z"/>
<path d="M6168 4071 c-194 -64 -318 -236 -318 -441 0 -181 97 -333 262 -414
135 -66 258 -66 393 -2 256 123 342 432 187 672 -48 73 -107 125 -190 166 -57
28 -75 32 -170 35 -85 2 -119 -1 -164 -16z m-101 -463 c-2 -13 -4 -3 -4 22 0
25 2 35 4 23 2 -13 2 -33 0 -45z"/>
</g>
</svg>
